<svg xmlns="http://www.w3.org/2000/svg" viewBox="0 0 450 88.2"><defs><style>.cls-1{fill:#5270a4}</style></defs><path class="cls-1" d="M19 7.2h38.42V0H23.08zM9.75 23.45H87.9l-4.17-7.2h-69.9zm78.31 41.43H9.41l4.16 7.2H84z"/><path d="M74.34 0H62.73v7.2h15.84z"/><path class="cls-1" d="M97.57 48.69H76.7v7.2h16.79z"/><path d="M4.23 55.89H25.7v-7.2H0z"/><path class="cls-1" d="M31.5 48.69h40.13v7.2H31.5z"/><path d="M78.86 81h-48v7.2h44z"/><path class="cls-1" d="M22.86 88.2h2.6V81h-6.83zM.38 39.7h42.29v-7.2H4.46z"/><path d="M93 32.5H48.48v7.2h48.78z"/><path class="cls-1" d="M168.9 19.64l-6.73 48.45h30.94l-1.25 8.4h-71.45l1.17-8.4h30.53L159 19.64h-27.4l1.33-8.4h63l-1.41 8.4zm62.63 37.09c.58 7.24 1.41 14.89 2.5 21.79h-7.15l-.5-5.66c-7.49 2.16-15 4.41-24.12 6.4l1.17-7.74c3.41-.58 6.74-1.16 10.06-1.83l2.25-16.39H206l5-34.91h9.48l1.79-11.89h7.82l-1.72 11.89h5.57c3.33 0 4.33 1.08 3.83 4.91l-2.08 16a188.76 188.76 0 0 0 18.71-9.23c-1.83-1.5-4-3.24-6-5a43.4 43.4 0 0 1-9.82 5.49l2.42-9.34a35.08 35.08 0 0 0 13.7-14.73h9.3a40.22 40.22 0 0 1-2.75 5.24H279c2 0 3.16 1.16 3.16 2.5 0 2.74-.33 4.33-2.5 6.49a78 78 0 0 1-12.56 9.73c4.82 3.33 11 7.15 17.05 10.56h-14.9c-2.66-1.83-5.82-4-9-6.4-3.66 2.08-9.15 4.74-13 6.4h-11.81l-1.58 12.31h-10.31l-2 14.8 4.24-1c-.33-3.58-.58-7.07-.83-10.4zm-17.53-10h3l2.91-21.64h-3zM230 25h-2.74l-3 21.71h3.49l2.83-21.13c.06-.51-.28-.51-.61-.51zm31.86 26l-.58 3.91H275l-1 6.56h-13.69l-.58 4.08h17.47l-.83 6.82h-17.56l-1.25 9.07h-9.07l1.33-9.07h-16.38l.83-6.82h16.47l.58-4.08h-13l.91-6.49h13.06l.58-3.91h-15l.83-6.65h15.09l.83-5.66h8.9l-.75 5.66h15l-.83 6.67zm-9.15-29.44h3.16c1.58 1.33 3.41 2.91 5.32 4.24a61.71 61.71 0 0 0 9.4-7.24c.5-.42.25-.67-.42-.67H256.4a52.51 52.51 0 0 1-3.74 3.72zm71.9 28.8l-1.19-4c4.6-3.74 7.73-7.41 9.38-11h-8.52v-3.6h4.86c-.51-1.29-1.05-2.52-1.62-3.7l3.56-1a49.27 49.27 0 0 1 1.65 4.67h3.89V35a28.64 28.64 0 0 1-4.17 7.48 32.86 32.86 0 0 1 5.55 3.85l-2.12 3.28a33.67 33.67 0 0 0-3.64-3.28v14.21h-3.7v-13.7c-1.2 1.16-2.54 2.34-3.93 3.52zm23.3-22.8V37.7h7.84v3.67h-7.84v14.35h8.67v3.67h-21.37v-3.67h8.89V41.37h-7.59V37.7h7.59V27.56zm42.77 1.08v3.6h-25.36v23.34h26.47v3.59h-30.1V28.64zm-11.47 12.77a41.64 41.64 0 0 0 4.71-8.2l3.41 1.8a44.36 44.36 0 0 1-5.21 9c2.52 2.34 4.85 4.64 7 6.94l-2.92 3a72.76 72.76 0 0 0-6.56-6.95 31.39 31.39 0 0 1-10.36 7.19l-2.19-3.38a28.63 28.63 0 0 0 9.64-6.51q-4.05-3.62-9-7.33l2.73-2.63q4.74 3.55 8.75 7.07zm28.27-13.71v9.1h1.58v3.71h-7.91v1.15c0 1 0 1.9-.07 2.8H408v13.13c1.76-3.38 2.7-8.05 2.84-14v-13.8a54.12 54.12 0 0 0 15.36-2.3l1.79 3.34A56 56 0 0 1 414.21 33v4.46h13.05v3.2A31.79 31.79 0 0 1 423 52.59a16.16 16.16 0 0 0 5.79 4.79l-1.87 3.34a19.41 19.41 0 0 1-6.22-5.11 24.09 24.09 0 0 1-6.55 5.15l-1.76-3.38a21.94 21.94 0 0 0 6.12-4.93A33.08 33.08 0 0 1 414.85 41h-.64v2.66c-.15 7-1.41 12.62-3.74 16.79L408 57.7v2.73h-3.67V48h-3.43c-.43 5.17-1.4 9.2-2.84 12l-2.84-2.48c1.44-3.31 2.19-8.64 2.23-15.9V28.39h3.7v8.41h2.66v-9.1zm13.34 21.4a25.82 25.82 0 0 0 2.84-8.1h-5.43a31.36 31.36 0 0 0 2.59 8.1z"/><path class="cls-1" d="M417 14.34a29.63 29.63 0 0 1 0 59.25h-84.28a29.63 29.63 0 1 1 0-59.25H417m0-3h-84.28A32.73 32.73 0 0 0 300.09 44a32.73 32.73 0 0 0 32.63 32.63H417A32.73 32.73 0 0 0 449.59 44 32.72 32.72 0 0 0 417 11.34z"/></svg>